<?xml version="1.0" encoding="UTF-8" standalone="no"?>
<!DOCTYPE svg PUBLIC "-//W3C//DTD SVG 1.1//EN" "http://www.w3.org/Graphics/SVG/1.1/DTD/svg11.dtd">
<!-- Generated by graphviz version 2.26.3 (20100126.1600)
 -->
<!-- Title: G Pages: 1 -->
<svg xmlns="http://www.w3.org/2000/svg" xmlns:xlink="http://www.w3.org/1999/xlink" width="652pt" height="1084pt">
<g id="viewport" class="graph" transform="scale(1 1) rotate(0) translate(4 1080)">
<title>G</title>
<polygon fill="white" stroke="white" points="-4,5 -4,-1080 649,-1080 649,5 -4,5"/>
<g id="graph2" class="cluster"><title>cluster_default</title>
<polyline fill="none" stroke="none" points="20,-98 624,-98 "/>
<path fill="none" stroke="none" d="M624,-98C630,-98 636,-104 636,-110"/>
<polyline fill="none" stroke="none" points="636,-110 636,-1056 "/>
<path fill="none" stroke="none" d="M636,-1056C636,-1062 630,-1068 624,-1068"/>
<polyline fill="none" stroke="none" points="624,-1068 20,-1068 "/>
<path fill="none" stroke="none" d="M20,-1068C14,-1068 8,-1062 8,-1056"/>
<polyline fill="none" stroke="none" points="8,-1056 8,-110 "/>
<path fill="none" stroke="none" d="M8,-110C8,-104 14,-98 20,-98"/>
</g>
<!-- _P2P_WP_Query -->
<g id="node2" class="node"><title>_P2P_WP_Query</title>
<a xlink:href="db_core_query-post.html" xlink:title="P2P_WP_Query" target="_parent">
<polygon fill="none" stroke="black" points="574,-1060 476,-1060 476,-1024 574,-1024 574,-1060"/>
<text text-anchor="middle" x="525" y="-1039.1" font-family="Courier New" font-size="11.00">P2P_WP_Query</text>
</a>
</g>
<!-- _P2P_URL_Query -->
<g id="node3" class="node"><title>_P2P_URL_Query</title>
<a xlink:href="db_core_url-query.html" xlink:title="P2P_URL_Query" target="_parent">
<polygon fill="none" stroke="black" points="577,-1006 473,-1006 473,-970 577,-970 577,-1006"/>
<text text-anchor="middle" x="525" y="-985.1" font-family="Courier New" font-size="11.00">P2P_URL_Query</text>
</a>
</g>
<!-- _P2P_Directed_Connection_Type -->
<g id="node4" class="node"><title>_P2P_Directed_Connection_Type</title>
<a xlink:href="db_core_directed-type.html" xlink:title="P2P_Directed_Connection_Type" target="_parent">
<polygon fill="none" stroke="black" points="628,-952 422,-952 422,-916 628,-916 628,-952"/>
<text text-anchor="middle" x="525" y="-931.1" font-family="Courier New" font-size="11.00">P2P_Directed_Connection_Type</text>
</a>
</g>
<!-- _P2P_Connection_Type -->
<g id="node5" class="node"><title>_P2P_Connection_Type</title>
<a xlink:href="db_core_type.html" xlink:title="P2P_Connection_Type" target="_parent">
<polygon fill="none" stroke="black" points="597,-898 453,-898 453,-862 597,-862 597,-898"/>
<text text-anchor="middle" x="525" y="-877.1" font-family="Courier New" font-size="11.00">P2P_Connection_Type</text>
</a>
</g>
<!-- _P2P_Connection_Type_Factory -->
<g id="node6" class="node"><title>_P2P_Connection_Type_Factory</title>
<a xlink:href="db_core_type-factory.html" xlink:title="P2P_Connection_Type_Factory" target="_parent">
<polygon fill="none" stroke="black" points="624,-844 426,-844 426,-808 624,-808 624,-844"/>
<text text-anchor="middle" x="525" y="-823.1" font-family="Courier New" font-size="11.00">P2P_Connection_Type_Factory</text>
</a>
</g>
<!-- _P2P_Query -->
<g id="node7" class="node"><title>_P2P_Query</title>
<a xlink:href="db_core_query.html" xlink:title="P2P_Query" target="_parent">
<polygon fill="none" stroke="black" points="563,-790 487,-790 487,-754 563,-754 563,-790"/>
<text text-anchor="middle" x="525" y="-769.1" font-family="Courier New" font-size="11.00">P2P_Query</text>
</a>
</g>
<!-- _P2P_Widget -->
<g id="node8" class="node"><title>_P2P_Widget</title>
<a xlink:href="db_core_widget.html" xlink:title="P2P_Widget" target="_parent">
<polygon fill="none" stroke="black" points="567,-196 483,-196 483,-160 567,-160 567,-196"/>
<text text-anchor="middle" x="525" y="-175.1" font-family="Courier New" font-size="11.00">P2P_Widget</text>
</a>
</g>
<!-- _scbWidget -->
<g id="node30" class="node"><title>_scbWidget</title>
<ellipse fill="none" stroke="black" cx="262" cy="-72" rx="68.0887" ry="18.3848"/>
<text text-anchor="middle" x="262" y="-68.4" font-family="Times Roman,serif" font-size="14.00" fill="gray">\\scbWidget</text>
</g>
<!-- _P2P_Widget&#45;&gt;_scbWidget -->
<g id="edge3" class="edge"><title>_P2P_Widget-&gt;_scbWidget</title>
<path fill="none" stroke="black" d="M482.992,-171.092C463.738,-166.908 441.021,-160.495 422,-151 385.483,-132.771 386.62,-112.021 350,-94 343.221,-90.6641 335.892,-87.8058 328.458,-85.3633"/>
<polygon fill="none" stroke="black" points="329.246,-81.945 318.661,-82.3868 327.211,-88.6427 329.246,-81.945"/>
</g>
<!-- _P2P_Storage -->
<g id="node9" class="node"><title>_P2P_Storage</title>
<a xlink:href="db_core_storage.html" xlink:title="P2P_Storage" target="_parent">
<polygon fill="none" stroke="black" points="570,-682 480,-682 480,-646 570,-646 570,-682"/>
<text text-anchor="middle" x="525" y="-661.1" font-family="Courier New" font-size="11.00">P2P_Storage</text>
</a>
</g>
<!-- _P2P_Side -->
<g id="node10" class="node"><title>_P2P_Side</title>
<a xlink:href="db_core_side.html" xlink:title="«abstract»&lt;br/&gt;P2P_Side" target="_parent">
<polygon fill="none" stroke="black" points="101,-763 17,-763 17,-727 101,-727 101,-763"/>
<text text-anchor="start" x="25" y="-750.433" font-family="Courier New" font-size="11.00">«abstract»</text>
<text text-anchor="start" x="31.5" y="-737.233" font-family="Courier New" font-size="11.00">P2P_Side</text>
</a>
</g>
<!-- _P2P_Side_Post -->
<g id="node11" class="node"><title>_P2P_Side_Post</title>
<a xlink:href="db_core_side.html" xlink:title="P2P_Side_Post" target="_parent">
<polygon fill="none" stroke="black" points="314,-736 210,-736 210,-700 314,-700 314,-736"/>
<text text-anchor="middle" x="262" y="-715.1" font-family="Courier New" font-size="11.00">P2P_Side_Post</text>
</a>
</g>
<!-- _P2P_Side_Post&#45;&gt;_P2P_Side -->
<g id="edge5" class="edge"><title>_P2P_Side_Post-&gt;_P2P_Side</title>
<path fill="none" stroke="black" d="M209.986,-724.918C179.801,-728.933 141.885,-733.976 111.601,-738.004"/>
<polygon fill="none" stroke="black" points="111.097,-734.54 101.645,-739.328 112.02,-741.479 111.097,-734.54"/>
</g>
<!-- _P2P_Side_Attachment -->
<g id="node12" class="node"><title>_P2P_Side_Attachment</title>
<a xlink:href="db_core_side.html" xlink:title="P2P_Side_Attachment" target="_parent">
<polygon fill="none" stroke="black" points="597,-736 453,-736 453,-700 597,-700 597,-736"/>
<text text-anchor="middle" x="525" y="-715.1" font-family="Courier New" font-size="11.00">P2P_Side_Attachment</text>
</a>
</g>
<!-- _P2P_Side_Attachment&#45;&gt;_P2P_Side_Post -->
<g id="edge7" class="edge"><title>_P2P_Side_Attachment-&gt;_P2P_Side_Post</title>
<path fill="none" stroke="black" d="M452.438,-718C412.241,-718 362.781,-718 324.341,-718"/>
<polygon fill="none" stroke="black" points="324.314,-714.5 314.314,-718 324.314,-721.5 324.314,-714.5"/>
</g>
<!-- _P2P_Side_User -->
<g id="node13" class="node"><title>_P2P_Side_User</title>
<a xlink:href="db_core_side.html" xlink:title="P2P_Side_User" target="_parent">
<polygon fill="none" stroke="black" points="314,-790 210,-790 210,-754 314,-754 314,-790"/>
<text text-anchor="middle" x="262" y="-769.1" font-family="Courier New" font-size="11.00">P2P_Side_User</text>
</a>
</g>
<!-- _P2P_Side_User&#45;&gt;_P2P_Side -->
<g id="edge9" class="edge"><title>_P2P_Side_User-&gt;_P2P_Side</title>
<path fill="none" stroke="black" d="M209.986,-765.082C179.801,-761.067 141.885,-756.024 111.601,-751.996"/>
<polygon fill="none" stroke="black" points="112.02,-748.521 101.645,-750.672 111.097,-755.46 112.02,-748.521"/>
</g>
<!-- _P2P_User_Query -->
<g id="node14" class="node"><title>_P2P_User_Query</title>
<a xlink:href="db_core_query-user.html" xlink:title="P2P_User_Query" target="_parent">
<polygon fill="none" stroke="black" points="580,-574 470,-574 470,-538 580,-538 580,-574"/>
<text text-anchor="middle" x="525" y="-553.1" font-family="Courier New" font-size="11.00">P2P_User_Query</text>
</a>
</g>
<!-- _P2P_Column -->
<g id="node15" class="node"><title>_P2P_Column</title>
<a xlink:href="db_admin_column.html" xlink:title="P2P_Column" target="_parent">
<polygon fill="none" stroke="black" points="567,-520 483,-520 483,-484 567,-484 567,-520"/>
<text text-anchor="middle" x="525" y="-499.1" font-family="Courier New" font-size="11.00">P2P_Column</text>
</a>
</g>
<!-- _P2P_Box_Factory -->
<g id="node16" class="node"><title>_P2P_Box_Factory</title>
<a xlink:href="db_admin_box-factory.html" xlink:title="P2P_Box_Factory" target="_parent">
<polygon fill="none" stroke="black" points="584,-466 466,-466 466,-430 584,-430 584,-466"/>
<text text-anchor="middle" x="525" y="-445.1" font-family="Courier New" font-size="11.00">P2P_Box_Factory</text>
</a>
</g>
<!-- _P2P_Tools_Page -->
<g id="node17" class="node"><title>_P2P_Tools_Page</title>
<a xlink:href="db_admin_tools.html" xlink:title="P2P_Tools_Page" target="_parent">
<polygon fill="none" stroke="black" points="580,-142 470,-142 470,-106 580,-106 580,-142"/>
<text text-anchor="middle" x="525" y="-121.1" font-family="Courier New" font-size="11.00">P2P_Tools_Page</text>
</a>
</g>
<!-- _scbAdminPage -->
<g id="node35" class="node"><title>_scbAdminPage</title>
<ellipse fill="none" stroke="black" cx="262" cy="-18" rx="87.1802" ry="18.3848"/>
<text text-anchor="middle" x="262" y="-14.4" font-family="Times Roman,serif" font-size="14.00" fill="gray">\\scbAdminPage</text>
</g>
<!-- _P2P_Tools_Page&#45;&gt;_scbAdminPage -->
<g id="edge11" class="edge"><title>_P2P_Tools_Page-&gt;_scbAdminPage</title>
<path fill="none" stroke="black" d="M488.695,-105.985C453.69,-89.0052 398.964,-63.4788 350,-45 341.436,-41.7678 332.298,-38.6303 323.273,-35.7069"/>
<polygon fill="none" stroke="black" points="324.146,-32.312 313.556,-32.6244 322.029,-38.9844 324.146,-32.312"/>
</g>
<!-- _P2P_Column_Factory -->
<g id="node18" class="node"><title>_P2P_Column_Factory</title>
<a xlink:href="db_admin_column-factory.html" xlink:title="P2P_Column_Factory" target="_parent">
<polygon fill="none" stroke="black" points="594,-358 456,-358 456,-322 594,-322 594,-358"/>
<text text-anchor="middle" x="525" y="-337.1" font-family="Courier New" font-size="11.00">P2P_Column_Factory</text>
</a>
</g>
<!-- _P2P_Mustache -->
<g id="node19" class="node"><title>_P2P_Mustache</title>
<a xlink:href="db_admin_mustache.html" xlink:title="«abstract»&lt;br/&gt;P2P_Mustache" target="_parent">
<polygon fill="none" stroke="black" points="574,-304 476,-304 476,-268 574,-268 574,-304"/>
<text text-anchor="start" x="491" y="-291.433" font-family="Courier New" font-size="11.00">«abstract»</text>
<text text-anchor="start" x="484" y="-278.233" font-family="Courier New" font-size="11.00">P2P_Mustache</text>
</a>
</g>
<!-- _P2P_Field -->
<g id="node20" class="node"><title>_P2P_Field</title>
<a xlink:href="db_admin_box.html" xlink:title="P2P_Field" target="_parent">
<polygon fill="none" stroke="black" points="97,-466 21,-466 21,-430 97,-430 97,-466"/>
<text text-anchor="middle" x="59" y="-445.1" font-family="Courier New" font-size="11.00">P2P_Field</text>
</a>
</g>
<!-- _P2P_Box -->
<g id="node21" class="node"><title>_P2P_Box</title>
<a xlink:href="db_admin_box.html" xlink:title="P2P_Box" target="_parent">
<polygon fill="none" stroke="black" points="557,-250 493,-250 493,-214 557,-214 557,-250"/>
<text text-anchor="middle" x="525" y="-229.1" font-family="Courier New" font-size="11.00">P2P_Box</text>
</a>
</g>
<!-- _P2P_Field_Create -->
<g id="node22" class="node"><title>_P2P_Field_Create</title>
<a xlink:href="db_admin_fields.html" xlink:title="P2P_Field_Create" target="_parent">
<polygon fill="none" stroke="black" points="324,-466 200,-466 200,-430 324,-430 324,-466"/>
<text text-anchor="middle" x="262" y="-445.1" font-family="Courier New" font-size="11.00">P2P_Field_Create</text>
</a>
</g>
<!-- _P2P_Field_Create&#45;&gt;_P2P_Field -->
<g id="edge17" class="edge"><title>_P2P_Field_Create-&gt;_P2P_Field</title>
<path fill="none" stroke="black" stroke-dasharray="1,5" d="M199.437,-448C169.996,-448 135.405,-448 107.919,-448"/>
<polygon fill="none" stroke="black" points="107.759,-444.5 97.7588,-448 107.759,-451.5 107.759,-444.5"/>
</g>
<!-- _P2P_Field_Delete -->
<g id="node23" class="node"><title>_P2P_Field_Delete</title>
<a xlink:href="db_admin_fields.html" xlink:title="P2P_Field_Delete" target="_parent">
<polygon fill="none" stroke="black" points="324,-412 200,-412 200,-376 324,-376 324,-412"/>
<text text-anchor="middle" x="262" y="-391.1" font-family="Courier New" font-size="11.00">P2P_Field_Delete</text>
</a>
</g>
<!-- _P2P_Field_Delete&#45;&gt;_P2P_Field -->
<g id="edge19" class="edge"><title>_P2P_Field_Delete-&gt;_P2P_Field</title>
<path fill="none" stroke="black" stroke-dasharray="1,5" d="M199.437,-410.642C169.867,-418.508 135.1,-427.757 107.557,-435.083"/>
<polygon fill="none" stroke="black" points="106.523,-431.737 97.7588,-437.69 108.323,-438.501 106.523,-431.737"/>
</g>
<!-- _P2P_Field_Order -->
<g id="node24" class="node"><title>_P2P_Field_Order</title>
<a xlink:href="db_admin_fields.html" xlink:title="P2P_Field_Order" target="_parent">
<polygon fill="none" stroke="black" points="321,-358 203,-358 203,-322 321,-322 321,-358"/>
<text text-anchor="middle" x="262" y="-337.1" font-family="Courier New" font-size="11.00">P2P_Field_Order</text>
</a>
</g>
<!-- _P2P_Field_Order&#45;&gt;_P2P_Field -->
<g id="edge21" class="edge"><title>_P2P_Field_Order-&gt;_P2P_Field</title>
<path fill="none" stroke="black" stroke-dasharray="1,5" d="M202.781,-355.345C192.961,-358.684 183.041,-362.57 174,-367 142.694,-382.342 110.541,-405.763 88.221,-423.481"/>
<polygon fill="none" stroke="black" points="85.7641,-420.965 80.1705,-429.963 90.1544,-426.417 85.7641,-420.965"/>
</g>
<!-- _P2P_Field_Generic -->
<g id="node25" class="node"><title>_P2P_Field_Generic</title>
<a xlink:href="db_admin_fields.html" xlink:title="P2P_Field_Generic" target="_parent">
<polygon fill="none" stroke="black" points="327,-574 197,-574 197,-538 327,-538 327,-574"/>
<text text-anchor="middle" x="262" y="-553.1" font-family="Courier New" font-size="11.00">P2P_Field_Generic</text>
</a>
</g>
<!-- _P2P_Field_Generic&#45;&gt;_P2P_Field -->
<g id="edge23" class="edge"><title>_P2P_Field_Generic-&gt;_P2P_Field</title>
<path fill="none" stroke="black" stroke-dasharray="1,5" d="M196.23,-538.348C188.595,-535.562 181.032,-532.446 174,-529 142.694,-513.658 110.541,-490.237 88.221,-472.519"/>
<polygon fill="none" stroke="black" points="90.1544,-469.583 80.1705,-466.037 85.7641,-475.035 90.1544,-469.583"/>
</g>
<!-- _P2P_Field_Title_Post -->
<g id="node26" class="node"><title>_P2P_Field_Title_Post</title>
<a xlink:href="db_admin_fields.html" xlink:title="P2P_Field_Title_Post" target="_parent">
<polygon fill="none" stroke="black" points="338,-520 186,-520 186,-484 338,-484 338,-520"/>
<text text-anchor="middle" x="262" y="-499.1" font-family="Courier New" font-size="11.00">P2P_Field_Title_Post</text>
</a>
</g>
<!-- _P2P_Field_Title_Post&#45;&gt;_P2P_Field -->
<g id="edge25" class="edge"><title>_P2P_Field_Title_Post-&gt;_P2P_Field</title>
<path fill="none" stroke="black" stroke-dasharray="1,5" d="M194.122,-483.944C165.732,-476.392 133.387,-467.788 107.462,-460.891"/>
<polygon fill="none" stroke="black" points="108.065,-457.43 97.5012,-458.242 106.265,-464.195 108.065,-457.43"/>
</g>
<!-- _P2P_Field_Title_Attachment -->
<g id="node27" class="node"><title>_P2P_Field_Title_Attachment</title>
<a xlink:href="db_admin_fields.html" xlink:title="P2P_Field_Title_Attachment" target="_parent">
<polygon fill="none" stroke="black" points="621,-628 429,-628 429,-592 621,-592 621,-628"/>
<text text-anchor="middle" x="525" y="-607.1" font-family="Courier New" font-size="11.00">P2P_Field_Title_Attachment</text>
</a>
</g>
<!-- _P2P_Field_Title_Attachment&#45;&gt;_P2P_Field_Title_Post -->
<g id="edge13" class="edge"><title>_P2P_Field_Title_Attachment-&gt;_P2P_Field_Title_Post</title>
<path fill="none" stroke="black" d="M443.793,-591.926C436.283,-589.301 428.908,-586.336 422,-583 385.981,-565.604 385.652,-547.137 350,-529 346.495,-527.217 342.85,-525.527 339.126,-523.929"/>
<polygon fill="none" stroke="black" points="340.319,-520.637 329.736,-520.145 337.703,-527.129 340.319,-520.637"/>
</g>
<!-- _P2P_Field_Title_User -->
<g id="node28" class="node"><title>_P2P_Field_Title_User</title>
<a xlink:href="db_admin_fields.html" xlink:title="P2P_Field_Title_User" target="_parent">
<polygon fill="none" stroke="black" points="601,-412 449,-412 449,-376 601,-376 601,-412"/>
<text text-anchor="middle" x="525" y="-391.1" font-family="Courier New" font-size="11.00">P2P_Field_Title_User</text>
</a>
</g>
<!-- _P2P_Field_Title_User&#45;&gt;_P2P_Field_Title_Post -->
<g id="edge15" class="edge"><title>_P2P_Field_Title_User-&gt;_P2P_Field_Title_Post</title>
<path fill="none" stroke="black" d="M448.967,-410.324C439.685,-413.362 430.49,-416.9 422,-421 385.981,-438.396 385.652,-456.863 350,-475 346.495,-476.783 342.85,-478.473 339.126,-480.071"/>
<polygon fill="none" stroke="black" points="337.703,-476.871 329.736,-483.855 340.319,-483.363 337.703,-476.871"/>
</g>
</g>
<script xlink:href="js/SVGPan.js"/></svg>
