<?xml version="1.0" encoding="UTF-8" standalone="no"?>
<!DOCTYPE svg PUBLIC "-//W3C//DTD SVG 1.1//EN" "http://www.w3.org/Graphics/SVG/1.1/DTD/svg11.dtd">
<!-- Generated by graphviz version 2.26.3 (20100126.1600)
 -->
<!-- Title: G Pages: 1 -->
<svg xmlns="http://www.w3.org/2000/svg" xmlns:xlink="http://www.w3.org/1999/xlink" width="440pt" height="706pt">
<g id="viewport" class="graph" transform="scale(1 1) rotate(0) translate(4 702)">
<title>G</title>
<polygon fill="white" stroke="white" points="-4,5 -4,-702 437,-702 437,5 -4,5"/>
<g id="graph2" class="cluster"><title>cluster_default</title>
<polyline fill="none" stroke="none" points="34,-44 412,-44 "/>
<path fill="none" stroke="none" d="M412,-44C418,-44 424,-50 424,-56"/>
<polyline fill="none" stroke="none" points="424,-56 424,-678 "/>
<path fill="none" stroke="none" d="M424,-678C424,-684 418,-690 412,-690"/>
<polyline fill="none" stroke="none" points="412,-690 34,-690 "/>
<path fill="none" stroke="none" d="M34,-690C28,-690 22,-684 22,-678"/>
<polyline fill="none" stroke="none" points="22,-678 22,-56 "/>
<path fill="none" stroke="none" d="M22,-56C22,-50 28,-44 34,-44"/>
</g>
<!-- _P2P_Connection_Type -->
<g id="node2" class="node"><title>_P2P_Connection_Type</title>
<a xlink:href="db_core_type.html" xlink:title="P2P_Connection_Type" target="_parent">
<polygon fill="none" stroke="black" points="385,-682 241,-682 241,-646 385,-646 385,-682"/>
<text text-anchor="middle" x="313" y="-661.1" font-family="Courier New" font-size="11.00">P2P_Connection_Type</text>
</a>
</g>
<!-- _P2P_Query -->
<g id="node3" class="node"><title>_P2P_Query</title>
<a xlink:href="db_core_query.html" xlink:title="P2P_Query" target="_parent">
<polygon fill="none" stroke="black" points="351,-628 275,-628 275,-592 351,-592 351,-628"/>
<text text-anchor="middle" x="313" y="-607.1" font-family="Courier New" font-size="11.00">P2P_Query</text>
</a>
</g>
<!-- _P2P_Widget -->
<g id="node4" class="node"><title>_P2P_Widget</title>
<a xlink:href="db_core_widget.html" xlink:title="P2P_Widget" target="_parent">
<polygon fill="none" stroke="black" points="355,-88 271,-88 271,-52 355,-52 355,-88"/>
<text text-anchor="middle" x="313" y="-67.1" font-family="Courier New" font-size="11.00">P2P_Widget</text>
</a>
</g>
<!-- _scbWidget -->
<g id="node16" class="node"><title>_scbWidget</title>
<ellipse fill="none" stroke="black" cx="69" cy="-18" rx="68.0887" ry="18.3848"/>
<text text-anchor="middle" x="69" y="-14.4" font-family="Times Roman,serif" font-size="14.00" fill="gray">\\scbWidget</text>
</g>
<!-- _P2P_Widget&#45;&gt;_scbWidget -->
<g id="edge3" class="edge"><title>_P2P_Widget-&gt;_scbWidget</title>
<path fill="none" stroke="black" d="M270.777,-61.0017C232.688,-52.8843 176.125,-40.8299 132.569,-31.5476"/>
<polygon fill="none" stroke="black" points="133.153,-28.0934 122.643,-29.4321 131.694,-34.9396 133.153,-28.0934"/>
</g>
<!-- _P2P_Directed_Connection_Type -->
<g id="node5" class="node"><title>_P2P_Directed_Connection_Type</title>
<a xlink:href="db_core_directed-type.html" xlink:title="P2P_Directed_Connection_Type" target="_parent">
<polygon fill="none" stroke="black" points="416,-520 210,-520 210,-484 416,-484 416,-520"/>
<text text-anchor="middle" x="313" y="-499.1" font-family="Courier New" font-size="11.00">P2P_Directed_Connection_Type</text>
</a>
</g>
<!-- _P2P_Storage -->
<g id="node6" class="node"><title>_P2P_Storage</title>
<a xlink:href="db_core_storage.html" xlink:title="P2P_Storage" target="_parent">
<polygon fill="none" stroke="black" points="358,-466 268,-466 268,-430 358,-430 358,-466"/>
<text text-anchor="middle" x="313" y="-445.1" font-family="Courier New" font-size="11.00">P2P_Storage</text>
</a>
</g>
<!-- _P2P_Field -->
<g id="node7" class="node"><title>_P2P_Field</title>
<a xlink:href="db_admin_box.html" xlink:title="P2P_Field" target="_parent">
<polygon fill="none" stroke="black" points="107,-250 31,-250 31,-214 107,-214 107,-250"/>
<text text-anchor="middle" x="69" y="-229.1" font-family="Courier New" font-size="11.00">P2P_Field</text>
</a>
</g>
<!-- _P2P_Box -->
<g id="node8" class="node"><title>_P2P_Box</title>
<a xlink:href="db_admin_box.html" xlink:title="P2P_Box" target="_parent">
<polygon fill="none" stroke="black" points="345,-412 281,-412 281,-376 345,-376 345,-412"/>
<text text-anchor="middle" x="313" y="-391.1" font-family="Courier New" font-size="11.00">P2P_Box</text>
</a>
</g>
<!-- _P2P_Box_Factory -->
<g id="node9" class="node"><title>_P2P_Box_Factory</title>
<a xlink:href="db_admin_base.html" xlink:title="P2P_Box_Factory" target="_parent">
<polygon fill="none" stroke="black" points="372,-358 254,-358 254,-322 372,-322 372,-358"/>
<text text-anchor="middle" x="313" y="-337.1" font-family="Courier New" font-size="11.00">P2P_Box_Factory</text>
</a>
</g>
<!-- _P2P_Field_Create -->
<g id="node10" class="node"><title>_P2P_Field_Create</title>
<a xlink:href="db_admin_fields.html" xlink:title="P2P_Field_Create" target="_parent">
<polygon fill="none" stroke="black" points="375,-250 251,-250 251,-214 375,-214 375,-250"/>
<text text-anchor="middle" x="313" y="-229.1" font-family="Courier New" font-size="11.00">P2P_Field_Create</text>
</a>
</g>
<!-- _P2P_Field_Create&#45;&gt;_P2P_Field -->
<g id="edge5" class="edge"><title>_P2P_Field_Create-&gt;_P2P_Field</title>
<path fill="none" stroke="black" stroke-dasharray="1,5" d="M250.481,-232C209.309,-232 156.172,-232 118.051,-232"/>
<polygon fill="none" stroke="black" points="117.72,-228.5 107.72,-232 117.72,-235.5 117.72,-228.5"/>
</g>
<!-- _P2P_Field_Delete -->
<g id="node11" class="node"><title>_P2P_Field_Delete</title>
<a xlink:href="db_admin_fields.html" xlink:title="P2P_Field_Delete" target="_parent">
<polygon fill="none" stroke="black" points="375,-196 251,-196 251,-160 375,-160 375,-196"/>
<text text-anchor="middle" x="313" y="-175.1" font-family="Courier New" font-size="11.00">P2P_Field_Delete</text>
</a>
</g>
<!-- _P2P_Field_Delete&#45;&gt;_P2P_Field -->
<g id="edge7" class="edge"><title>_P2P_Field_Delete-&gt;_P2P_Field</title>
<path fill="none" stroke="black" stroke-dasharray="1,5" d="M250.481,-191.836C209.133,-200.987 155.718,-212.808 117.563,-221.252"/>
<polygon fill="none" stroke="black" points="116.727,-217.853 107.72,-223.431 118.24,-224.687 116.727,-217.853"/>
</g>
<!-- _P2P_Field_Order -->
<g id="node12" class="node"><title>_P2P_Field_Order</title>
<a xlink:href="db_admin_fields.html" xlink:title="P2P_Field_Order" target="_parent">
<polygon fill="none" stroke="black" points="372,-142 254,-142 254,-106 372,-106 372,-142"/>
<text text-anchor="middle" x="313" y="-121.1" font-family="Courier New" font-size="11.00">P2P_Field_Order</text>
</a>
</g>
<!-- _P2P_Field_Order&#45;&gt;_P2P_Field -->
<g id="edge9" class="edge"><title>_P2P_Field_Order-&gt;_P2P_Field</title>
<path fill="none" stroke="black" stroke-dasharray="1,5" d="M253.92,-134.851C239.114,-138.807 223.587,-144.074 210,-151 173.141,-169.789 174.355,-190.254 138,-210 131.543,-213.507 124.439,-216.559 117.319,-219.182"/>
<polygon fill="none" stroke="black" points="115.984,-215.939 107.66,-222.493 118.255,-222.561 115.984,-215.939"/>
</g>
<!-- _P2P_Field_Title -->
<g id="node13" class="node"><title>_P2P_Field_Title</title>
<a xlink:href="db_admin_fields.html" xlink:title="P2P_Field_Title" target="_parent">
<polygon fill="none" stroke="black" points="372,-574 254,-574 254,-538 372,-538 372,-574"/>
<text text-anchor="middle" x="313" y="-553.1" font-family="Courier New" font-size="11.00">P2P_Field_Title</text>
</a>
</g>
<!-- _P2P_Field_Title&#45;&gt;_P2P_Field -->
<g id="edge11" class="edge"><title>_P2P_Field_Title-&gt;_P2P_Field</title>
<path fill="none" stroke="black" stroke-dasharray="1,5" d="M253.793,-549.652C238.246,-545.667 222.384,-539.262 210,-529 123.32,-457.173 86.5103,-319.74 74.1771,-260.419"/>
<polygon fill="none" stroke="black" points="77.5439,-259.406 72.1526,-250.285 70.6795,-260.777 77.5439,-259.406"/>
</g>
<!-- _P2P_Field_Generic -->
<g id="node14" class="node"><title>_P2P_Field_Generic</title>
<a xlink:href="db_admin_fields.html" xlink:title="P2P_Field_Generic" target="_parent">
<polygon fill="none" stroke="black" points="378,-304 248,-304 248,-268 378,-268 378,-304"/>
<text text-anchor="middle" x="313" y="-283.1" font-family="Courier New" font-size="11.00">P2P_Field_Generic</text>
</a>
</g>
<!-- _P2P_Field_Generic&#45;&gt;_P2P_Field -->
<g id="edge13" class="edge"><title>_P2P_Field_Generic-&gt;_P2P_Field</title>
<path fill="none" stroke="black" stroke-dasharray="1,5" d="M247.292,-271.458C206.521,-262.435 155.008,-251.035 117.849,-242.811"/>
<polygon fill="none" stroke="black" points="118.29,-239.324 107.77,-240.58 116.777,-246.158 118.29,-239.324"/>
</g>
</g>
<script xlink:href="js/SVGPan.js"/></svg>
