<?xml version="1.0" encoding="UTF-8" standalone="no"?>
<!DOCTYPE svg PUBLIC "-//W3C//DTD SVG 1.1//EN" "http://www.w3.org/Graphics/SVG/1.1/DTD/svg11.dtd">
<!-- Generated by graphviz version 2.26.3 (20100126.1600)
 -->
<!-- Title: G Pages: 1 -->
<svg xmlns="http://www.w3.org/2000/svg" xmlns:xlink="http://www.w3.org/1999/xlink" width="558pt" height="706pt">
<g id="viewport" class="graph" transform="scale(1 1) rotate(0) translate(4 702)">
<title>G</title>
<polygon fill="white" stroke="white" points="-4,5 -4,-702 555,-702 555,5 -4,5"/>
<g id="graph2" class="cluster"><title>cluster_default</title>
<polyline fill="none" stroke="none" points="20,-44 530,-44 "/>
<path fill="none" stroke="none" d="M530,-44C536,-44 542,-50 542,-56"/>
<polyline fill="none" stroke="none" points="542,-56 542,-678 "/>
<path fill="none" stroke="none" d="M542,-678C542,-684 536,-690 530,-690"/>
<polyline fill="none" stroke="none" points="530,-690 20,-690 "/>
<path fill="none" stroke="none" d="M20,-690C14,-690 8,-684 8,-678"/>
<polyline fill="none" stroke="none" points="8,-678 8,-56 "/>
<path fill="none" stroke="none" d="M8,-56C8,-50 14,-44 20,-44"/>
</g>
<!-- _P2P_Connection_Type -->
<g id="node2" class="node"><title>_P2P_Connection_Type</title>
<a xlink:href="db_core_type.html" xlink:title="P2P_Connection_Type" target="_parent">
<polygon fill="none" stroke="black" points="486,-682 342,-682 342,-646 486,-646 486,-682"/>
<text text-anchor="middle" x="414" y="-661.1" font-family="Courier New" font-size="11.00">P2P_Connection_Type</text>
</a>
</g>
<!-- _P2P_Query -->
<g id="node3" class="node"><title>_P2P_Query</title>
<a xlink:href="db_core_query.html" xlink:title="P2P_Query" target="_parent">
<polygon fill="none" stroke="black" points="452,-628 376,-628 376,-592 452,-592 452,-628"/>
<text text-anchor="middle" x="414" y="-607.1" font-family="Courier New" font-size="11.00">P2P_Query</text>
</a>
</g>
<!-- _P2P_Widget -->
<g id="node4" class="node"><title>_P2P_Widget</title>
<a xlink:href="db_core_widget.html" xlink:title="P2P_Widget" target="_parent">
<polygon fill="none" stroke="black" points="456,-88 372,-88 372,-52 456,-52 456,-88"/>
<text text-anchor="middle" x="414" y="-67.1" font-family="Courier New" font-size="11.00">P2P_Widget</text>
</a>
</g>
<!-- _scbWidget -->
<g id="node17" class="node"><title>_scbWidget</title>
<ellipse fill="none" stroke="black" cx="119" cy="-18" rx="68.0887" ry="18.3848"/>
<text text-anchor="middle" x="119" y="-14.4" font-family="Times Roman,serif" font-size="14.00" fill="gray">\\scbWidget</text>
</g>
<!-- _P2P_Widget&#45;&gt;_scbWidget -->
<g id="edge3" class="edge"><title>_P2P_Widget-&gt;_scbWidget</title>
<path fill="none" stroke="black" d="M371.734,-62.5497C323.264,-54.0059 243.161,-39.886 186.132,-29.8334"/>
<polygon fill="none" stroke="black" points="186.577,-26.3579 176.121,-28.0687 185.361,-33.2516 186.577,-26.3579"/>
</g>
<!-- _P2P_Directed_Connection_Type -->
<g id="node5" class="node"><title>_P2P_Directed_Connection_Type</title>
<a xlink:href="db_core_directed-type.html" xlink:title="P2P_Directed_Connection_Type" target="_parent">
<polygon fill="none" stroke="black" points="222,-574 16,-574 16,-538 222,-538 222,-574"/>
<text text-anchor="middle" x="119" y="-553.1" font-family="Courier New" font-size="11.00">P2P_Directed_Connection_Type</text>
</a>
</g>
<!-- _P2P_Storage -->
<g id="node6" class="node"><title>_P2P_Storage</title>
<a xlink:href="db_core_storage.html" xlink:title="P2P_Storage" target="_parent">
<polygon fill="none" stroke="black" points="459,-520 369,-520 369,-484 459,-484 459,-520"/>
<text text-anchor="middle" x="414" y="-499.1" font-family="Courier New" font-size="11.00">P2P_Storage</text>
</a>
</g>
<!-- _P2P_Indeterminate_Connection_Type -->
<g id="node7" class="node"><title>_P2P_Indeterminate_Connection_Type</title>
<a xlink:href="db_core_indeterminate-type.html" xlink:title="P2P_Indeterminate_Connection_Type" target="_parent">
<polygon fill="none" stroke="black" points="533,-574 295,-574 295,-538 533,-538 533,-574"/>
<text text-anchor="middle" x="414" y="-553.1" font-family="Courier New" font-size="11.00">P2P_Indeterminate_Connection_Type</text>
</a>
</g>
<!-- _P2P_Indeterminate_Connection_Type&#45;&gt;_P2P_Directed_Connection_Type -->
<g id="edge5" class="edge"><title>_P2P_Indeterminate_Connection_Type-&gt;_P2P_Directed_Connection_Type</title>
<path fill="none" stroke="black" d="M294.437,-556C273.943,-556 252.702,-556 232.375,-556"/>
<polygon fill="none" stroke="black" points="232.159,-552.5 222.159,-556 232.159,-559.5 232.159,-552.5"/>
</g>
<!-- _P2P_Field -->
<g id="node8" class="node"><title>_P2P_Field</title>
<a xlink:href="db_admin_box.html" xlink:title="P2P_Field" target="_parent">
<polygon fill="none" stroke="black" points="157,-250 81,-250 81,-214 157,-214 157,-250"/>
<text text-anchor="middle" x="119" y="-229.1" font-family="Courier New" font-size="11.00">P2P_Field</text>
</a>
</g>
<!-- _P2P_Box -->
<g id="node9" class="node"><title>_P2P_Box</title>
<a xlink:href="db_admin_box.html" xlink:title="P2P_Box" target="_parent">
<polygon fill="none" stroke="black" points="446,-412 382,-412 382,-376 446,-376 446,-412"/>
<text text-anchor="middle" x="414" y="-391.1" font-family="Courier New" font-size="11.00">P2P_Box</text>
</a>
</g>
<!-- _P2P_Box_Factory -->
<g id="node10" class="node"><title>_P2P_Box_Factory</title>
<a xlink:href="db_admin_base.html" xlink:title="P2P_Box_Factory" target="_parent">
<polygon fill="none" stroke="black" points="473,-358 355,-358 355,-322 473,-322 473,-358"/>
<text text-anchor="middle" x="414" y="-337.1" font-family="Courier New" font-size="11.00">P2P_Box_Factory</text>
</a>
</g>
<!-- _P2P_Field_Create -->
<g id="node11" class="node"><title>_P2P_Field_Create</title>
<a xlink:href="db_admin_fields.html" xlink:title="P2P_Field_Create" target="_parent">
<polygon fill="none" stroke="black" points="476,-250 352,-250 352,-214 476,-214 476,-250"/>
<text text-anchor="middle" x="414" y="-229.1" font-family="Courier New" font-size="11.00">P2P_Field_Create</text>
</a>
</g>
<!-- _P2P_Field_Create&#45;&gt;_P2P_Field -->
<g id="edge7" class="edge"><title>_P2P_Field_Create-&gt;_P2P_Field</title>
<path fill="none" stroke="black" stroke-dasharray="1,5" d="M351.438,-232C296.647,-232 218.136,-232 167.857,-232"/>
<polygon fill="none" stroke="black" points="167.576,-228.5 157.576,-232 167.576,-235.5 167.576,-228.5"/>
</g>
<!-- _P2P_Field_Delete -->
<g id="node12" class="node"><title>_P2P_Field_Delete</title>
<a xlink:href="db_admin_fields.html" xlink:title="P2P_Field_Delete" target="_parent">
<polygon fill="none" stroke="black" points="476,-196 352,-196 352,-160 476,-160 476,-196"/>
<text text-anchor="middle" x="414" y="-175.1" font-family="Courier New" font-size="11.00">P2P_Field_Delete</text>
</a>
</g>
<!-- _P2P_Field_Delete&#45;&gt;_P2P_Field -->
<g id="edge9" class="edge"><title>_P2P_Field_Delete-&gt;_P2P_Field</title>
<path fill="none" stroke="black" stroke-dasharray="1,5" d="M351.438,-189.452C296.533,-199.503 217.808,-213.913 167.542,-223.114"/>
<polygon fill="none" stroke="black" points="166.782,-219.695 157.576,-224.939 168.042,-226.581 166.782,-219.695"/>
</g>
<!-- _P2P_Field_Order -->
<g id="node13" class="node"><title>_P2P_Field_Order</title>
<a xlink:href="db_admin_fields.html" xlink:title="P2P_Field_Order" target="_parent">
<polygon fill="none" stroke="black" points="473,-142 355,-142 355,-106 473,-106 473,-142"/>
<text text-anchor="middle" x="414" y="-121.1" font-family="Courier New" font-size="11.00">P2P_Field_Order</text>
</a>
</g>
<!-- _P2P_Field_Order&#45;&gt;_P2P_Field -->
<g id="edge11" class="edge"><title>_P2P_Field_Order-&gt;_P2P_Field</title>
<path fill="none" stroke="black" stroke-dasharray="1,5" d="M354.786,-131.673C334.802,-135.717 312.808,-141.824 294,-151 256.818,-169.14 259.281,-192.062 222,-210 205.196,-218.085 185.434,-223.22 167.738,-226.472"/>
<polygon fill="none" stroke="black" points="166.877,-223.068 157.595,-228.177 168.037,-229.971 166.877,-223.068"/>
</g>
<!-- _P2P_Field_Title -->
<g id="node14" class="node"><title>_P2P_Field_Title</title>
<a xlink:href="db_admin_fields.html" xlink:title="P2P_Field_Title" target="_parent">
<polygon fill="none" stroke="black" points="473,-466 355,-466 355,-430 473,-430 473,-466"/>
<text text-anchor="middle" x="414" y="-445.1" font-family="Courier New" font-size="11.00">P2P_Field_Title</text>
</a>
</g>
<!-- _P2P_Field_Title&#45;&gt;_P2P_Field -->
<g id="edge13" class="edge"><title>_P2P_Field_Title-&gt;_P2P_Field</title>
<path fill="none" stroke="black" stroke-dasharray="1,5" d="M354.935,-441.956C334.639,-438.045 312.412,-431.605 294,-421 222.7,-379.932 163.489,-300.262 135.822,-258.696"/>
<polygon fill="none" stroke="black" points="138.658,-256.638 130.249,-250.192 132.803,-260.475 138.658,-256.638"/>
</g>
<!-- _P2P_Field_Generic -->
<g id="node15" class="node"><title>_P2P_Field_Generic</title>
<a xlink:href="db_admin_fields.html" xlink:title="P2P_Field_Generic" target="_parent">
<polygon fill="none" stroke="black" points="479,-304 349,-304 349,-268 479,-268 479,-304"/>
<text text-anchor="middle" x="414" y="-283.1" font-family="Courier New" font-size="11.00">P2P_Field_Generic</text>
</a>
</g>
<!-- _P2P_Field_Generic&#45;&gt;_P2P_Field -->
<g id="edge15" class="edge"><title>_P2P_Field_Generic-&gt;_P2P_Field</title>
<path fill="none" stroke="black" stroke-dasharray="1,5" d="M348.163,-273.949C293.469,-263.937 216.899,-249.921 167.622,-240.9"/>
<polygon fill="none" stroke="black" points="168.005,-237.412 157.538,-239.054 166.745,-244.298 168.005,-237.412"/>
</g>
</g>
<script xlink:href="js/SVGPan.js"/></svg>
