<?xml version="1.0" encoding="UTF-8" standalone="no"?>
<!DOCTYPE svg PUBLIC "-//W3C//DTD SVG 1.1//EN" "http://www.w3.org/Graphics/SVG/1.1/DTD/svg11.dtd">
<!-- Generated by graphviz version 2.26.3 (20100126.1600)
 -->
<!-- Title: G Pages: 1 -->
<svg xmlns="http://www.w3.org/2000/svg" xmlns:xlink="http://www.w3.org/1999/xlink" width="640pt" height="976pt">
<g id="viewport" class="graph" transform="scale(1 1) rotate(0) translate(4 972)">
<title>G</title>
<polygon fill="white" stroke="white" points="-4,5 -4,-972 637,-972 637,5 -4,5"/>
<g id="graph2" class="cluster"><title>cluster_default</title>
<polyline fill="none" stroke="none" points="20,-44 612,-44 "/>
<path fill="none" stroke="none" d="M612,-44C618,-44 624,-50 624,-56"/>
<polyline fill="none" stroke="none" points="624,-56 624,-948 "/>
<path fill="none" stroke="none" d="M624,-948C624,-954 618,-960 612,-960"/>
<polyline fill="none" stroke="none" points="612,-960 20,-960 "/>
<path fill="none" stroke="none" d="M20,-960C14,-960 8,-954 8,-948"/>
<polyline fill="none" stroke="none" points="8,-948 8,-56 "/>
<path fill="none" stroke="none" d="M8,-56C8,-50 14,-44 20,-44"/>
</g>
<!-- _P2P_WP_Query -->
<g id="node2" class="node"><title>_P2P_WP_Query</title>
<a xlink:href="db_core_query-post.html" xlink:title="P2P_WP_Query" target="_parent">
<polygon fill="none" stroke="black" points="562,-952 464,-952 464,-916 562,-916 562,-952"/>
<text text-anchor="middle" x="513" y="-931.1" font-family="Courier New" font-size="11.00">P2P_WP_Query</text>
</a>
</g>
<!-- _P2P_URL_Query -->
<g id="node3" class="node"><title>_P2P_URL_Query</title>
<a xlink:href="db_core_url-query.html" xlink:title="P2P_URL_Query" target="_parent">
<polygon fill="none" stroke="black" points="565,-898 461,-898 461,-862 565,-862 565,-898"/>
<text text-anchor="middle" x="513" y="-877.1" font-family="Courier New" font-size="11.00">P2P_URL_Query</text>
</a>
</g>
<!-- _P2P_Directed_Connection_Type -->
<g id="node4" class="node"><title>_P2P_Directed_Connection_Type</title>
<a xlink:href="db_core_directed-type.html" xlink:title="P2P_Directed_Connection_Type" target="_parent">
<polygon fill="none" stroke="black" points="616,-844 410,-844 410,-808 616,-808 616,-844"/>
<text text-anchor="middle" x="513" y="-823.1" font-family="Courier New" font-size="11.00">P2P_Directed_Connection_Type</text>
</a>
</g>
<!-- _Generic_Connection_Type -->
<g id="node5" class="node"><title>_Generic_Connection_Type</title>
<a xlink:href="db_core_type.html" xlink:title="Generic_Connection_Type" target="_parent">
<polygon fill="none" stroke="black" points="338,-790 166,-790 166,-754 338,-754 338,-790"/>
<text text-anchor="middle" x="252" y="-769.1" font-family="Courier New" font-size="11.00">Generic_Connection_Type</text>
</a>
</g>
<!-- _P2P_Connection_Type -->
<g id="node6" class="node"><title>_P2P_Connection_Type</title>
<a xlink:href="db_core_type.html" xlink:title="P2P_Connection_Type" target="_parent">
<polygon fill="none" stroke="black" points="585,-790 441,-790 441,-754 585,-754 585,-790"/>
<text text-anchor="middle" x="513" y="-769.1" font-family="Courier New" font-size="11.00">P2P_Connection_Type</text>
</a>
</g>
<!-- _P2P_Connection_Type&#45;&gt;_Generic_Connection_Type -->
<g id="edge3" class="edge"><title>_P2P_Connection_Type-&gt;_Generic_Connection_Type</title>
<path fill="none" stroke="black" d="M440.297,-772C411.839,-772 378.785,-772 348.387,-772"/>
<polygon fill="none" stroke="black" points="348.19,-768.5 338.19,-772 348.19,-775.5 348.19,-768.5"/>
</g>
<!-- _P2P_Util -->
<g id="node7" class="node"><title>_P2P_Util</title>
<a xlink:href="db_core_util.html" xlink:title="«abstract»&lt;br/&gt;P2P_Util" target="_parent">
<polygon fill="none" stroke="black" points="555,-736 471,-736 471,-700 555,-700 555,-736"/>
<text text-anchor="start" x="479" y="-723.433" font-family="Courier New" font-size="11.00">«abstract»</text>
<text text-anchor="start" x="485.5" y="-710.233" font-family="Courier New" font-size="11.00">P2P_Util</text>
</a>
</g>
<!-- _P2P_Connection_Type_Factory -->
<g id="node8" class="node"><title>_P2P_Connection_Type_Factory</title>
<a xlink:href="db_core_type-factory.html" xlink:title="P2P_Connection_Type_Factory" target="_parent">
<polygon fill="none" stroke="black" points="612,-682 414,-682 414,-646 612,-646 612,-682"/>
<text text-anchor="middle" x="513" y="-661.1" font-family="Courier New" font-size="11.00">P2P_Connection_Type_Factory</text>
</a>
</g>
<!-- _P2P_Query -->
<g id="node9" class="node"><title>_P2P_Query</title>
<a xlink:href="db_core_query.html" xlink:title="P2P_Query" target="_parent">
<polygon fill="none" stroke="black" points="551,-628 475,-628 475,-592 551,-592 551,-628"/>
<text text-anchor="middle" x="513" y="-607.1" font-family="Courier New" font-size="11.00">P2P_Query</text>
</a>
</g>
<!-- _P2P_Widget -->
<g id="node10" class="node"><title>_P2P_Widget</title>
<a xlink:href="db_core_widget.html" xlink:title="P2P_Widget" target="_parent">
<polygon fill="none" stroke="black" points="555,-88 471,-88 471,-52 555,-52 555,-88"/>
<text text-anchor="middle" x="513" y="-67.1" font-family="Courier New" font-size="11.00">P2P_Widget</text>
</a>
</g>
<!-- _scbWidget -->
<g id="node29" class="node"><title>_scbWidget</title>
<ellipse fill="none" stroke="black" cx="252" cy="-18" rx="68.0887" ry="18.3848"/>
<text text-anchor="middle" x="252" y="-14.4" font-family="Times Roman,serif" font-size="14.00" fill="gray">\\scbWidget</text>
</g>
<!-- _P2P_Widget&#45;&gt;_scbWidget -->
<g id="edge5" class="edge"><title>_P2P_Widget-&gt;_scbWidget</title>
<path fill="none" stroke="black" d="M470.776,-61.5875C429.155,-53.2953 364.983,-40.51 316.885,-30.9272"/>
<polygon fill="none" stroke="black" points="317.37,-27.4552 306.879,-28.9337 316.002,-34.3203 317.37,-27.4552"/>
</g>
<!-- _P2P_Storage -->
<g id="node11" class="node"><title>_P2P_Storage</title>
<a xlink:href="db_core_storage.html" xlink:title="P2P_Storage" target="_parent">
<polygon fill="none" stroke="black" points="558,-520 468,-520 468,-484 558,-484 558,-520"/>
<text text-anchor="middle" x="513" y="-499.1" font-family="Courier New" font-size="11.00">P2P_Storage</text>
</a>
</g>
<!-- _P2P_Side -->
<g id="node12" class="node"><title>_P2P_Side</title>
<a xlink:href="db_core_side.html" xlink:title="«abstract»&lt;br/&gt;P2P_Side" target="_parent">
<polygon fill="none" stroke="black" points="294,-547 210,-547 210,-511 294,-511 294,-547"/>
<text text-anchor="start" x="218" y="-534.433" font-family="Courier New" font-size="11.00">«abstract»</text>
<text text-anchor="start" x="224.5" y="-521.233" font-family="Courier New" font-size="11.00">P2P_Side</text>
</a>
</g>
<!-- _P2P_Side_Post -->
<g id="node13" class="node"><title>_P2P_Side_Post</title>
<a xlink:href="db_core_side.html" xlink:title="P2P_Side_Post" target="_parent">
<polygon fill="none" stroke="black" points="565,-466 461,-466 461,-430 565,-430 565,-466"/>
<text text-anchor="middle" x="513" y="-445.1" font-family="Courier New" font-size="11.00">P2P_Side_Post</text>
</a>
</g>
<!-- _P2P_Side_Post&#45;&gt;_P2P_Side -->
<g id="edge7" class="edge"><title>_P2P_Side_Post-&gt;_P2P_Side</title>
<path fill="none" stroke="black" d="M460.923,-460.863C444.554,-465.117 426.46,-470.037 410,-475 374.438,-485.723 334.893,-499.239 304.261,-510.067"/>
<polygon fill="none" stroke="black" points="302.897,-506.837 294.645,-513.481 305.239,-513.434 302.897,-506.837"/>
</g>
<!-- _P2P_Side_User -->
<g id="node14" class="node"><title>_P2P_Side_User</title>
<a xlink:href="db_core_side.html" xlink:title="P2P_Side_User" target="_parent">
<polygon fill="none" stroke="black" points="565,-574 461,-574 461,-538 565,-538 565,-574"/>
<text text-anchor="middle" x="513" y="-553.1" font-family="Courier New" font-size="11.00">P2P_Side_User</text>
</a>
</g>
<!-- _P2P_Side_User&#45;&gt;_P2P_Side -->
<g id="edge9" class="edge"><title>_P2P_Side_User-&gt;_P2P_Side</title>
<path fill="none" stroke="black" d="M460.81,-550.601C415.447,-545.908 350.05,-539.143 304.574,-534.439"/>
<polygon fill="none" stroke="black" points="304.922,-530.956 294.615,-533.408 304.202,-537.919 304.922,-530.956"/>
</g>
<!-- _P2P_User_Query -->
<g id="node15" class="node"><title>_P2P_User_Query</title>
<a xlink:href="db_core_query-user.html" xlink:title="P2P_User_Query" target="_parent">
<polygon fill="none" stroke="black" points="568,-358 458,-358 458,-322 568,-322 568,-358"/>
<text text-anchor="middle" x="513" y="-337.1" font-family="Courier New" font-size="11.00">P2P_User_Query</text>
</a>
</g>
<!-- _P2P_Column -->
<g id="node16" class="node"><title>_P2P_Column</title>
<a xlink:href="db_admin_column.html" xlink:title="P2P_Column" target="_parent">
<polygon fill="none" stroke="black" points="555,-304 471,-304 471,-268 555,-268 555,-304"/>
<text text-anchor="middle" x="513" y="-283.1" font-family="Courier New" font-size="11.00">P2P_Column</text>
</a>
</g>
<!-- _P2P_Box_Factory -->
<g id="node17" class="node"><title>_P2P_Box_Factory</title>
<a xlink:href="db_admin_box-factory.html" xlink:title="P2P_Box_Factory" target="_parent">
<polygon fill="none" stroke="black" points="572,-250 454,-250 454,-214 572,-214 572,-250"/>
<text text-anchor="middle" x="513" y="-229.1" font-family="Courier New" font-size="11.00">P2P_Box_Factory</text>
</a>
</g>
<!-- _P2P_Column_Factory -->
<g id="node18" class="node"><title>_P2P_Column_Factory</title>
<a xlink:href="db_admin_column-factory.html" xlink:title="P2P_Column_Factory" target="_parent">
<polygon fill="none" stroke="black" points="582,-196 444,-196 444,-160 582,-160 582,-196"/>
<text text-anchor="middle" x="513" y="-175.1" font-family="Courier New" font-size="11.00">P2P_Column_Factory</text>
</a>
</g>
<!-- _P2P_Field -->
<g id="node19" class="node"><title>_P2P_Field</title>
<a xlink:href="db_admin_box.html" xlink:title="P2P_Field" target="_parent">
<polygon fill="none" stroke="black" points="93,-358 17,-358 17,-322 93,-322 93,-358"/>
<text text-anchor="middle" x="55" y="-337.1" font-family="Courier New" font-size="11.00">P2P_Field</text>
</a>
</g>
<!-- _P2P_Box -->
<g id="node20" class="node"><title>_P2P_Box</title>
<a xlink:href="db_admin_box.html" xlink:title="P2P_Box" target="_parent">
<polygon fill="none" stroke="black" points="545,-142 481,-142 481,-106 545,-106 545,-142"/>
<text text-anchor="middle" x="513" y="-121.1" font-family="Courier New" font-size="11.00">P2P_Box</text>
</a>
</g>
<!-- _P2P_Field_Create -->
<g id="node21" class="node"><title>_P2P_Field_Create</title>
<a xlink:href="db_admin_fields.html" xlink:title="P2P_Field_Create" target="_parent">
<polygon fill="none" stroke="black" points="314,-358 190,-358 190,-322 314,-322 314,-358"/>
<text text-anchor="middle" x="252" y="-337.1" font-family="Courier New" font-size="11.00">P2P_Field_Create</text>
</a>
</g>
<!-- _P2P_Field_Create&#45;&gt;_P2P_Field -->
<g id="edge13" class="edge"><title>_P2P_Field_Create-&gt;_P2P_Field</title>
<path fill="none" stroke="black" stroke-dasharray="1,5" d="M189.397,-340C161.77,-340 129.778,-340 103.94,-340"/>
<polygon fill="none" stroke="black" points="103.638,-336.5 93.6377,-340 103.638,-343.5 103.638,-336.5"/>
</g>
<!-- _P2P_Field_Delete -->
<g id="node22" class="node"><title>_P2P_Field_Delete</title>
<a xlink:href="db_admin_fields.html" xlink:title="P2P_Field_Delete" target="_parent">
<polygon fill="none" stroke="black" points="314,-304 190,-304 190,-268 314,-268 314,-304"/>
<text text-anchor="middle" x="252" y="-283.1" font-family="Courier New" font-size="11.00">P2P_Field_Delete</text>
</a>
</g>
<!-- _P2P_Field_Delete&#45;&gt;_P2P_Field -->
<g id="edge15" class="edge"><title>_P2P_Field_Delete-&gt;_P2P_Field</title>
<path fill="none" stroke="black" stroke-dasharray="1,5" d="M189.397,-303.16C161.647,-310.767 129.494,-319.58 103.596,-326.679"/>
<polygon fill="none" stroke="black" points="102.357,-323.39 93.6377,-329.409 104.207,-330.141 102.357,-323.39"/>
</g>
<!-- _P2P_Field_Order -->
<g id="node23" class="node"><title>_P2P_Field_Order</title>
<a xlink:href="db_admin_fields.html" xlink:title="P2P_Field_Order" target="_parent">
<polygon fill="none" stroke="black" points="311,-250 193,-250 193,-214 311,-214 311,-250"/>
<text text-anchor="middle" x="252" y="-229.1" font-family="Courier New" font-size="11.00">P2P_Field_Order</text>
</a>
</g>
<!-- _P2P_Field_Order&#45;&gt;_P2P_Field -->
<g id="edge17" class="edge"><title>_P2P_Field_Order-&gt;_P2P_Field</title>
<path fill="none" stroke="black" stroke-dasharray="1,5" d="M192.699,-247.808C183.56,-251.04 174.383,-254.77 166,-259 135.594,-274.342 104.581,-297.763 83.0937,-315.481"/>
<polygon fill="none" stroke="black" points="80.7696,-312.862 75.3461,-321.963 85.2616,-318.23 80.7696,-312.862"/>
</g>
<!-- _P2P_Field_Generic -->
<g id="node24" class="node"><title>_P2P_Field_Generic</title>
<a xlink:href="db_admin_fields.html" xlink:title="P2P_Field_Generic" target="_parent">
<polygon fill="none" stroke="black" points="317,-466 187,-466 187,-430 317,-430 317,-466"/>
<text text-anchor="middle" x="252" y="-445.1" font-family="Courier New" font-size="11.00">P2P_Field_Generic</text>
</a>
</g>
<!-- _P2P_Field_Generic&#45;&gt;_P2P_Field -->
<g id="edge19" class="edge"><title>_P2P_Field_Generic-&gt;_P2P_Field</title>
<path fill="none" stroke="black" stroke-dasharray="1,5" d="M186.306,-429.848C179.321,-427.192 172.427,-424.243 166,-421 135.594,-405.658 104.581,-382.237 83.0937,-364.519"/>
<polygon fill="none" stroke="black" points="85.2616,-361.77 75.3461,-358.037 80.7696,-367.138 85.2616,-361.77"/>
</g>
<!-- _P2P_Field_Title_Post -->
<g id="node25" class="node"><title>_P2P_Field_Title_Post</title>
<a xlink:href="db_admin_fields.html" xlink:title="P2P_Field_Title_Post" target="_parent">
<polygon fill="none" stroke="black" points="328,-412 176,-412 176,-376 328,-376 328,-412"/>
<text text-anchor="middle" x="252" y="-391.1" font-family="Courier New" font-size="11.00">P2P_Field_Title_Post</text>
</a>
</g>
<!-- _P2P_Field_Title_Post&#45;&gt;_P2P_Field -->
<g id="edge21" class="edge"><title>_P2P_Field_Title_Post-&gt;_P2P_Field</title>
<path fill="none" stroke="black" stroke-dasharray="1,5" d="M186.128,-375.944C159.093,-368.533 128.361,-360.109 103.447,-353.28"/>
<polygon fill="none" stroke="black" points="104.075,-349.823 93.5057,-350.555 102.225,-356.574 104.075,-349.823"/>
</g>
<!-- _P2P_Field_Title_User -->
<g id="node26" class="node"><title>_P2P_Field_Title_User</title>
<a xlink:href="db_admin_fields.html" xlink:title="P2P_Field_Title_User" target="_parent">
<polygon fill="none" stroke="black" points="589,-412 437,-412 437,-376 589,-376 589,-412"/>
<text text-anchor="middle" x="513" y="-391.1" font-family="Courier New" font-size="11.00">P2P_Field_Title_User</text>
</a>
</g>
<!-- _P2P_Field_Title_User&#45;&gt;_P2P_Field_Title_Post -->
<g id="edge11" class="edge"><title>_P2P_Field_Title_User-&gt;_P2P_Field_Title_Post</title>
<path fill="none" stroke="black" d="M436.806,-394C405.986,-394 370.248,-394 338.459,-394"/>
<polygon fill="none" stroke="black" points="338.288,-390.5 328.288,-394 338.288,-397.5 338.288,-390.5"/>
</g>
</g>
<script xlink:href="js/SVGPan.js"/></svg>
