<?xml version="1.0" encoding="UTF-8" standalone="no"?>
<!DOCTYPE svg PUBLIC "-//W3C//DTD SVG 1.1//EN" "http://www.w3.org/Graphics/SVG/1.1/DTD/svg11.dtd">
<!-- Generated by graphviz version 2.26.3 (20100126.1600)
 -->
<!-- Title: G Pages: 1 -->
<svg xmlns="http://www.w3.org/2000/svg" xmlns:xlink="http://www.w3.org/1999/xlink" width="648pt" height="976pt">
<g id="viewport" class="graph" transform="scale(1 1) rotate(0) translate(4 972)">
<title>G</title>
<polygon fill="white" stroke="white" points="-4,5 -4,-972 645,-972 645,5 -4,5"/>
<g id="graph2" class="cluster"><title>cluster_default</title>
<polyline fill="none" stroke="none" points="20,-44 620,-44 "/>
<path fill="none" stroke="none" d="M620,-44C626,-44 632,-50 632,-56"/>
<polyline fill="none" stroke="none" points="632,-56 632,-948 "/>
<path fill="none" stroke="none" d="M632,-948C632,-954 626,-960 620,-960"/>
<polyline fill="none" stroke="none" points="620,-960 20,-960 "/>
<path fill="none" stroke="none" d="M20,-960C14,-960 8,-954 8,-948"/>
<polyline fill="none" stroke="none" points="8,-948 8,-56 "/>
<path fill="none" stroke="none" d="M8,-56C8,-50 14,-44 20,-44"/>
</g>
<!-- _P2P_WP_Query -->
<g id="node2" class="node"><title>_P2P_WP_Query</title>
<a xlink:href="db_core_query-post.html" xlink:title="P2P_WP_Query" target="_parent">
<polygon fill="none" stroke="black" points="570,-952 472,-952 472,-916 570,-916 570,-952"/>
<text text-anchor="middle" x="521" y="-931.1" font-family="Courier New" font-size="11.00">P2P_WP_Query</text>
</a>
</g>
<!-- _P2P_URL_Query -->
<g id="node3" class="node"><title>_P2P_URL_Query</title>
<a xlink:href="db_core_url-query.html" xlink:title="P2P_URL_Query" target="_parent">
<polygon fill="none" stroke="black" points="573,-898 469,-898 469,-862 573,-862 573,-898"/>
<text text-anchor="middle" x="521" y="-877.1" font-family="Courier New" font-size="11.00">P2P_URL_Query</text>
</a>
</g>
<!-- _P2P_Directed_Connection_Type -->
<g id="node4" class="node"><title>_P2P_Directed_Connection_Type</title>
<a xlink:href="db_core_directed-type.html" xlink:title="P2P_Directed_Connection_Type" target="_parent">
<polygon fill="none" stroke="black" points="624,-844 418,-844 418,-808 624,-808 624,-844"/>
<text text-anchor="middle" x="521" y="-823.1" font-family="Courier New" font-size="11.00">P2P_Directed_Connection_Type</text>
</a>
</g>
<!-- _Generic_Connection_Type -->
<g id="node5" class="node"><title>_Generic_Connection_Type</title>
<a xlink:href="db_core_type.html" xlink:title="Generic_Connection_Type" target="_parent">
<polygon fill="none" stroke="black" points="346,-790 174,-790 174,-754 346,-754 346,-790"/>
<text text-anchor="middle" x="260" y="-769.1" font-family="Courier New" font-size="11.00">Generic_Connection_Type</text>
</a>
</g>
<!-- _P2P_Connection_Type -->
<g id="node6" class="node"><title>_P2P_Connection_Type</title>
<a xlink:href="db_core_type.html" xlink:title="P2P_Connection_Type" target="_parent">
<polygon fill="none" stroke="black" points="593,-790 449,-790 449,-754 593,-754 593,-790"/>
<text text-anchor="middle" x="521" y="-769.1" font-family="Courier New" font-size="11.00">P2P_Connection_Type</text>
</a>
</g>
<!-- _P2P_Connection_Type&#45;&gt;_Generic_Connection_Type -->
<g id="edge3" class="edge"><title>_P2P_Connection_Type-&gt;_Generic_Connection_Type</title>
<path fill="none" stroke="black" d="M448.297,-772C419.839,-772 386.785,-772 356.387,-772"/>
<polygon fill="none" stroke="black" points="356.19,-768.5 346.19,-772 356.19,-775.5 356.19,-768.5"/>
</g>
<!-- _P2P_Connection_Type_Factory -->
<g id="node7" class="node"><title>_P2P_Connection_Type_Factory</title>
<a xlink:href="db_core_type-factory.html" xlink:title="P2P_Connection_Type_Factory" target="_parent">
<polygon fill="none" stroke="black" points="620,-736 422,-736 422,-700 620,-700 620,-736"/>
<text text-anchor="middle" x="521" y="-715.1" font-family="Courier New" font-size="11.00">P2P_Connection_Type_Factory</text>
</a>
</g>
<!-- _P2P_Query -->
<g id="node8" class="node"><title>_P2P_Query</title>
<a xlink:href="db_core_query.html" xlink:title="P2P_Query" target="_parent">
<polygon fill="none" stroke="black" points="559,-682 483,-682 483,-646 559,-646 559,-682"/>
<text text-anchor="middle" x="521" y="-661.1" font-family="Courier New" font-size="11.00">P2P_Query</text>
</a>
</g>
<!-- _P2P_Widget -->
<g id="node9" class="node"><title>_P2P_Widget</title>
<a xlink:href="db_core_widget.html" xlink:title="P2P_Widget" target="_parent">
<polygon fill="none" stroke="black" points="563,-88 479,-88 479,-52 563,-52 563,-88"/>
<text text-anchor="middle" x="521" y="-67.1" font-family="Courier New" font-size="11.00">P2P_Widget</text>
</a>
</g>
<!-- _scbWidget -->
<g id="node31" class="node"><title>_scbWidget</title>
<ellipse fill="none" stroke="black" cx="260" cy="-18" rx="68.0887" ry="18.3848"/>
<text text-anchor="middle" x="260" y="-14.4" font-family="Times Roman,serif" font-size="14.00" fill="gray">\\scbWidget</text>
</g>
<!-- _P2P_Widget&#45;&gt;_scbWidget -->
<g id="edge5" class="edge"><title>_P2P_Widget-&gt;_scbWidget</title>
<path fill="none" stroke="black" d="M478.776,-61.5875C437.155,-53.2953 372.983,-40.51 324.885,-30.9272"/>
<polygon fill="none" stroke="black" points="325.37,-27.4552 314.879,-28.9337 324.002,-34.3203 325.37,-27.4552"/>
</g>
<!-- _P2P_Storage -->
<g id="node10" class="node"><title>_P2P_Storage</title>
<a xlink:href="db_core_storage.html" xlink:title="P2P_Storage" target="_parent">
<polygon fill="none" stroke="black" points="566,-574 476,-574 476,-538 566,-538 566,-574"/>
<text text-anchor="middle" x="521" y="-553.1" font-family="Courier New" font-size="11.00">P2P_Storage</text>
</a>
</g>
<!-- _P2P_Side -->
<g id="node11" class="node"><title>_P2P_Side</title>
<a xlink:href="db_core_side.html" xlink:title="«abstract»&lt;br/&gt;P2P_Side" target="_parent">
<polygon fill="none" stroke="black" points="101,-601 17,-601 17,-565 101,-565 101,-601"/>
<text text-anchor="start" x="25" y="-588.433" font-family="Courier New" font-size="11.00">«abstract»</text>
<text text-anchor="start" x="31.5" y="-575.233" font-family="Courier New" font-size="11.00">P2P_Side</text>
</a>
</g>
<!-- _P2P_Side_Post -->
<g id="node12" class="node"><title>_P2P_Side_Post</title>
<a xlink:href="db_core_side.html" xlink:title="P2P_Side_Post" target="_parent">
<polygon fill="none" stroke="black" points="312,-628 208,-628 208,-592 312,-592 312,-628"/>
<text text-anchor="middle" x="260" y="-607.1" font-family="Courier New" font-size="11.00">P2P_Side_Post</text>
</a>
</g>
<!-- _P2P_Side_Post&#45;&gt;_P2P_Side -->
<g id="edge7" class="edge"><title>_P2P_Side_Post-&gt;_P2P_Side</title>
<path fill="none" stroke="black" d="M207.976,-603.012C178.426,-599.042 141.522,-594.085 111.838,-590.098"/>
<polygon fill="none" stroke="black" points="112.04,-586.593 101.663,-588.731 111.108,-593.531 112.04,-586.593"/>
</g>
<!-- _P2P_Side_Attachment -->
<g id="node13" class="node"><title>_P2P_Side_Attachment</title>
<a xlink:href="db_core_side.html" xlink:title="P2P_Side_Attachment" target="_parent">
<polygon fill="none" stroke="black" points="593,-628 449,-628 449,-592 593,-592 593,-628"/>
<text text-anchor="middle" x="521" y="-607.1" font-family="Courier New" font-size="11.00">P2P_Side_Attachment</text>
</a>
</g>
<!-- _P2P_Side_Attachment&#45;&gt;_P2P_Side_Post -->
<g id="edge9" class="edge"><title>_P2P_Side_Attachment-&gt;_P2P_Side_Post</title>
<path fill="none" stroke="black" d="M448.297,-610C408.727,-610 360.273,-610 322.428,-610"/>
<polygon fill="none" stroke="black" points="322.051,-606.5 312.051,-610 322.051,-613.5 322.051,-606.5"/>
</g>
<!-- _P2P_Side_User -->
<g id="node14" class="node"><title>_P2P_Side_User</title>
<a xlink:href="db_core_side.html" xlink:title="P2P_Side_User" target="_parent">
<polygon fill="none" stroke="black" points="312,-574 208,-574 208,-538 312,-538 312,-574"/>
<text text-anchor="middle" x="260" y="-553.1" font-family="Courier New" font-size="11.00">P2P_Side_User</text>
</a>
</g>
<!-- _P2P_Side_User&#45;&gt;_P2P_Side -->
<g id="edge11" class="edge"><title>_P2P_Side_User-&gt;_P2P_Side</title>
<path fill="none" stroke="black" d="M207.976,-562.988C178.426,-566.958 141.522,-571.915 111.838,-575.902"/>
<polygon fill="none" stroke="black" points="111.108,-572.469 101.663,-577.269 112.04,-579.407 111.108,-572.469"/>
</g>
<!-- _P2P_User_Query -->
<g id="node15" class="node"><title>_P2P_User_Query</title>
<a xlink:href="db_core_query-user.html" xlink:title="P2P_User_Query" target="_parent">
<polygon fill="none" stroke="black" points="576,-466 466,-466 466,-430 576,-430 576,-466"/>
<text text-anchor="middle" x="521" y="-445.1" font-family="Courier New" font-size="11.00">P2P_User_Query</text>
</a>
</g>
<!-- _P2P_Column -->
<g id="node16" class="node"><title>_P2P_Column</title>
<a xlink:href="db_admin_column.html" xlink:title="P2P_Column" target="_parent">
<polygon fill="none" stroke="black" points="563,-412 479,-412 479,-376 563,-376 563,-412"/>
<text text-anchor="middle" x="521" y="-391.1" font-family="Courier New" font-size="11.00">P2P_Column</text>
</a>
</g>
<!-- _P2P_Box_Factory -->
<g id="node17" class="node"><title>_P2P_Box_Factory</title>
<a xlink:href="db_admin_box-factory.html" xlink:title="P2P_Box_Factory" target="_parent">
<polygon fill="none" stroke="black" points="580,-358 462,-358 462,-322 580,-322 580,-358"/>
<text text-anchor="middle" x="521" y="-337.1" font-family="Courier New" font-size="11.00">P2P_Box_Factory</text>
</a>
</g>
<!-- _P2P_Column_Factory -->
<g id="node18" class="node"><title>_P2P_Column_Factory</title>
<a xlink:href="db_admin_column-factory.html" xlink:title="P2P_Column_Factory" target="_parent">
<polygon fill="none" stroke="black" points="590,-304 452,-304 452,-268 590,-268 590,-304"/>
<text text-anchor="middle" x="521" y="-283.1" font-family="Courier New" font-size="11.00">P2P_Column_Factory</text>
</a>
</g>
<!-- _P2P_Field -->
<g id="node19" class="node"><title>_P2P_Field</title>
<a xlink:href="db_admin_box.html" xlink:title="P2P_Field" target="_parent">
<polygon fill="none" stroke="black" points="97,-305 21,-305 21,-269 97,-269 97,-305"/>
<text text-anchor="middle" x="59" y="-284.1" font-family="Courier New" font-size="11.00">P2P_Field</text>
</a>
</g>
<!-- _P2P_Box -->
<g id="node20" class="node"><title>_P2P_Box</title>
<a xlink:href="db_admin_box.html" xlink:title="P2P_Box" target="_parent">
<polygon fill="none" stroke="black" points="553,-250 489,-250 489,-214 553,-214 553,-250"/>
<text text-anchor="middle" x="521" y="-229.1" font-family="Courier New" font-size="11.00">P2P_Box</text>
</a>
</g>
<!-- _P2P_Mustache -->
<g id="node21" class="node"><title>_P2P_Mustache</title>
<a xlink:href="db_admin_utils.html" xlink:title="«abstract»&lt;br/&gt;P2P_Mustache" target="_parent">
<polygon fill="none" stroke="black" points="570,-196 472,-196 472,-160 570,-160 570,-196"/>
<text text-anchor="start" x="487" y="-183.433" font-family="Courier New" font-size="11.00">«abstract»</text>
<text text-anchor="start" x="480" y="-170.233" font-family="Courier New" font-size="11.00">P2P_Mustache</text>
</a>
</g>
<!-- _P2P_Field_Create -->
<g id="node22" class="node"><title>_P2P_Field_Create</title>
<a xlink:href="db_admin_fields.html" xlink:title="P2P_Field_Create" target="_parent">
<polygon fill="none" stroke="black" points="322,-251 198,-251 198,-215 322,-215 322,-251"/>
<text text-anchor="middle" x="260" y="-230.1" font-family="Courier New" font-size="11.00">P2P_Field_Create</text>
</a>
</g>
<!-- _P2P_Field_Create&#45;&gt;_P2P_Field -->
<g id="edge17" class="edge"><title>_P2P_Field_Create-&gt;_P2P_Field</title>
<path fill="none" stroke="black" stroke-dasharray="1,5" d="M197.229,-249.864C168.324,-257.629 134.548,-266.704 107.619,-273.938"/>
<polygon fill="none" stroke="black" points="106.407,-270.64 97.6577,-276.614 108.223,-277.4 106.407,-270.64"/>
</g>
<!-- _P2P_Field_Delete -->
<g id="node23" class="node"><title>_P2P_Field_Delete</title>
<a xlink:href="db_admin_fields.html" xlink:title="P2P_Field_Delete" target="_parent">
<polygon fill="none" stroke="black" points="322,-197 198,-197 198,-161 322,-161 322,-197"/>
<text text-anchor="middle" x="260" y="-176.1" font-family="Courier New" font-size="11.00">P2P_Field_Delete</text>
</a>
</g>
<!-- _P2P_Field_Delete&#45;&gt;_P2P_Field -->
<g id="edge19" class="edge"><title>_P2P_Field_Delete-&gt;_P2P_Field</title>
<path fill="none" stroke="black" stroke-dasharray="1,5" d="M197.102,-196.243C189.176,-199.141 181.296,-202.395 174,-206 142.938,-221.348 110.984,-244.562 88.6677,-262.21"/>
<polygon fill="none" stroke="black" points="86.22,-259.687 80.6084,-268.673 90.5994,-265.147 86.22,-259.687"/>
</g>
<!-- _P2P_Field_Order -->
<g id="node24" class="node"><title>_P2P_Field_Order</title>
<a xlink:href="db_admin_fields.html" xlink:title="P2P_Field_Order" target="_parent">
<polygon fill="none" stroke="black" points="319,-413 201,-413 201,-377 319,-377 319,-413"/>
<text text-anchor="middle" x="260" y="-392.1" font-family="Courier New" font-size="11.00">P2P_Field_Order</text>
</a>
</g>
<!-- _P2P_Field_Order&#45;&gt;_P2P_Field -->
<g id="edge21" class="edge"><title>_P2P_Field_Order-&gt;_P2P_Field</title>
<path fill="none" stroke="black" stroke-dasharray="1,5" d="M200.761,-379.069C191.614,-375.852 182.418,-372.159 174,-368 142.938,-352.652 110.984,-329.438 88.6677,-311.79"/>
<polygon fill="none" stroke="black" points="90.5994,-308.853 80.6084,-305.327 86.22,-314.313 90.5994,-308.853"/>
</g>
<!-- _P2P_Field_Generic -->
<g id="node25" class="node"><title>_P2P_Field_Generic</title>
<a xlink:href="db_admin_fields.html" xlink:title="P2P_Field_Generic" target="_parent">
<polygon fill="none" stroke="black" points="325,-359 195,-359 195,-323 325,-323 325,-359"/>
<text text-anchor="middle" x="260" y="-338.1" font-family="Courier New" font-size="11.00">P2P_Field_Generic</text>
</a>
</g>
<!-- _P2P_Field_Generic&#45;&gt;_P2P_Field -->
<g id="edge23" class="edge"><title>_P2P_Field_Generic-&gt;_P2P_Field</title>
<path fill="none" stroke="black" stroke-dasharray="1,5" d="M194.463,-323.393C166.121,-315.779 133.541,-307.026 107.436,-300.013"/>
<polygon fill="none" stroke="black" points="108.336,-296.63 97.7702,-297.416 106.52,-303.391 108.336,-296.63"/>
</g>
<!-- _P2P_Field_Title_Post -->
<g id="node26" class="node"><title>_P2P_Field_Title_Post</title>
<a xlink:href="db_admin_fields.html" xlink:title="P2P_Field_Title_Post" target="_parent">
<polygon fill="none" stroke="black" points="336,-305 184,-305 184,-269 336,-269 336,-305"/>
<text text-anchor="middle" x="260" y="-284.1" font-family="Courier New" font-size="11.00">P2P_Field_Title_Post</text>
</a>
</g>
<!-- _P2P_Field_Title_Post&#45;&gt;_P2P_Field -->
<g id="edge25" class="edge"><title>_P2P_Field_Title_Post-&gt;_P2P_Field</title>
<path fill="none" stroke="black" stroke-dasharray="1,5" d="M183.724,-287C158.202,-287 130.465,-287 107.642,-287"/>
<polygon fill="none" stroke="black" points="107.527,-283.5 97.5267,-287 107.527,-290.5 107.527,-283.5"/>
</g>
<!-- _P2P_Field_Title_Attachment -->
<g id="node27" class="node"><title>_P2P_Field_Title_Attachment</title>
<a xlink:href="db_admin_fields.html" xlink:title="P2P_Field_Title_Attachment" target="_parent">
<polygon fill="none" stroke="black" points="617,-142 425,-142 425,-106 617,-106 617,-142"/>
<text text-anchor="middle" x="521" y="-121.1" font-family="Courier New" font-size="11.00">P2P_Field_Title_Attachment</text>
</a>
</g>
<!-- _P2P_Field_Title_Attachment&#45;&gt;_P2P_Field_Title_Post -->
<g id="edge13" class="edge"><title>_P2P_Field_Title_Attachment-&gt;_P2P_Field_Title_Post</title>
<path fill="none" stroke="black" d="M433.216,-142.05C427.862,-144.643 422.734,-147.608 418,-151 370.804,-184.815 392.373,-225.066 346,-260 344.172,-261.377 342.272,-262.685 340.315,-263.927"/>
<polygon fill="none" stroke="black" points="338.39,-260.994 331.407,-268.962 341.835,-267.088 338.39,-260.994"/>
</g>
<!-- _P2P_Field_Title_User -->
<g id="node28" class="node"><title>_P2P_Field_Title_User</title>
<a xlink:href="db_admin_fields.html" xlink:title="P2P_Field_Title_User" target="_parent">
<polygon fill="none" stroke="black" points="597,-520 445,-520 445,-484 597,-484 597,-520"/>
<text text-anchor="middle" x="521" y="-499.1" font-family="Courier New" font-size="11.00">P2P_Field_Title_User</text>
</a>
</g>
<!-- _P2P_Field_Title_User&#45;&gt;_P2P_Field_Title_Post -->
<g id="edge15" class="edge"><title>_P2P_Field_Title_User-&gt;_P2P_Field_Title_Post</title>
<path fill="none" stroke="black" d="M444.824,-490.468C435.098,-486.663 425.825,-481.636 418,-475 358.216,-424.304 404.555,-366.111 346,-314 344.831,-312.96 343.622,-311.959 342.378,-310.998"/>
<polygon fill="none" stroke="black" points="343.969,-307.85 333.712,-305.193 340.073,-313.666 343.969,-307.85"/>
</g>
</g>
<script xlink:href="js/SVGPan.js"/></svg>
