<?xml version="1.0" encoding="UTF-8" standalone="no"?>
<!DOCTYPE svg PUBLIC "-//W3C//DTD SVG 1.1//EN" "http://www.w3.org/Graphics/SVG/1.1/DTD/svg11.dtd">
<!-- Generated by graphviz version 2.26.3 (20100126.1600)
 -->
<!-- Title: G Pages: 1 -->
<svg xmlns="http://www.w3.org/2000/svg" xmlns:xlink="http://www.w3.org/1999/xlink" width="518pt" height="706pt">
<g id="viewport" class="graph" transform="scale(1 1) rotate(0) translate(4 702)">
<title>G</title>
<polygon fill="white" stroke="white" points="-4,5 -4,-702 515,-702 515,5 -4,5"/>
<g id="graph2" class="cluster"><title>cluster_default</title>
<polyline fill="none" stroke="none" points="20,-44 490,-44 "/>
<path fill="none" stroke="none" d="M490,-44C496,-44 502,-50 502,-56"/>
<polyline fill="none" stroke="none" points="502,-56 502,-678 "/>
<path fill="none" stroke="none" d="M502,-678C502,-684 496,-690 490,-690"/>
<polyline fill="none" stroke="none" points="490,-690 20,-690 "/>
<path fill="none" stroke="none" d="M20,-690C14,-690 8,-684 8,-678"/>
<polyline fill="none" stroke="none" points="8,-678 8,-56 "/>
<path fill="none" stroke="none" d="M8,-56C8,-50 14,-44 20,-44"/>
</g>
<!-- _P2P_Directed_Connection_Type -->
<g id="node2" class="node"><title>_P2P_Directed_Connection_Type</title>
<a xlink:href="db_core_directed-type.html" xlink:title="P2P_Directed_Connection_Type" target="_parent">
<polygon fill="none" stroke="black" points="222,-574 16,-574 16,-538 222,-538 222,-574"/>
<text text-anchor="middle" x="119" y="-553.1" font-family="Courier New" font-size="11.00">P2P_Directed_Connection_Type</text>
</a>
</g>
<!-- _P2P_Connection_Type -->
<g id="node3" class="node"><title>_P2P_Connection_Type</title>
<a xlink:href="db_core_type.html" xlink:title="P2P_Connection_Type" target="_parent">
<polygon fill="none" stroke="black" points="466,-682 322,-682 322,-646 466,-646 466,-682"/>
<text text-anchor="middle" x="394" y="-661.1" font-family="Courier New" font-size="11.00">P2P_Connection_Type</text>
</a>
</g>
<!-- _P2P_Query -->
<g id="node4" class="node"><title>_P2P_Query</title>
<a xlink:href="db_core_query.html" xlink:title="P2P_Query" target="_parent">
<polygon fill="none" stroke="black" points="432,-628 356,-628 356,-592 432,-592 432,-628"/>
<text text-anchor="middle" x="394" y="-607.1" font-family="Courier New" font-size="11.00">P2P_Query</text>
</a>
</g>
<!-- _P2P_Widget -->
<g id="node5" class="node"><title>_P2P_Widget</title>
<a xlink:href="db_core_widget.html" xlink:title="P2P_Widget" target="_parent">
<polygon fill="none" stroke="black" points="436,-88 352,-88 352,-52 436,-52 436,-88"/>
<text text-anchor="middle" x="394" y="-67.1" font-family="Courier New" font-size="11.00">P2P_Widget</text>
</a>
</g>
<!-- _scbWidget -->
<g id="node17" class="node"><title>_scbWidget</title>
<ellipse fill="none" stroke="black" cx="119" cy="-18" rx="68.0887" ry="18.3848"/>
<text text-anchor="middle" x="119" y="-14.4" font-family="Times Roman,serif" font-size="14.00" fill="gray">\\scbWidget</text>
</g>
<!-- _P2P_Widget&#45;&gt;_scbWidget -->
<g id="edge3" class="edge"><title>_P2P_Widget-&gt;_scbWidget</title>
<path fill="none" stroke="black" d="M351.934,-62.0457C307.431,-53.6305 236.608,-40.2386 184.728,-30.4285"/>
<polygon fill="none" stroke="black" points="185.094,-26.9358 174.618,-28.5168 183.793,-33.8139 185.094,-26.9358"/>
</g>
<!-- _P2P_Storage -->
<g id="node6" class="node"><title>_P2P_Storage</title>
<a xlink:href="db_core_storage.html" xlink:title="P2P_Storage" target="_parent">
<polygon fill="none" stroke="black" points="439,-520 349,-520 349,-484 439,-484 439,-520"/>
<text text-anchor="middle" x="394" y="-499.1" font-family="Courier New" font-size="11.00">P2P_Storage</text>
</a>
</g>
<!-- _P2P_Ordered_Connection_Type -->
<g id="node7" class="node"><title>_P2P_Ordered_Connection_Type</title>
<a xlink:href="db_core_ordered-type.html" xlink:title="P2P_Ordered_Connection_Type" target="_parent">
<polygon fill="none" stroke="black" points="493,-574 295,-574 295,-538 493,-538 493,-574"/>
<text text-anchor="middle" x="394" y="-553.1" font-family="Courier New" font-size="11.00">P2P_Ordered_Connection_Type</text>
</a>
</g>
<!-- _P2P_Ordered_Connection_Type&#45;&gt;_P2P_Directed_Connection_Type -->
<g id="edge5" class="edge"><title>_P2P_Ordered_Connection_Type-&gt;_P2P_Directed_Connection_Type</title>
<path fill="none" stroke="black" d="M294.33,-556C274.119,-556 252.726,-556 232.091,-556"/>
<polygon fill="none" stroke="black" points="232.03,-552.5 222.03,-556 232.03,-559.5 232.03,-552.5"/>
</g>
<!-- _P2P_Box_Factory -->
<g id="node8" class="node"><title>_P2P_Box_Factory</title>
<a xlink:href="db_admin_base.html" xlink:title="P2P_Box_Factory" target="_parent">
<polygon fill="none" stroke="black" points="453,-412 335,-412 335,-376 453,-376 453,-412"/>
<text text-anchor="middle" x="394" y="-391.1" font-family="Courier New" font-size="11.00">P2P_Box_Factory</text>
</a>
</g>
<!-- _P2P_Field -->
<g id="node9" class="node"><title>_P2P_Field</title>
<a xlink:href="db_admin_box.html" xlink:title="P2P_Field" target="_parent">
<polygon fill="none" stroke="black" points="157,-250 81,-250 81,-214 157,-214 157,-250"/>
<text text-anchor="middle" x="119" y="-229.1" font-family="Courier New" font-size="11.00">P2P_Field</text>
</a>
</g>
<!-- _P2P_Box -->
<g id="node10" class="node"><title>_P2P_Box</title>
<a xlink:href="db_admin_box.html" xlink:title="P2P_Box" target="_parent">
<polygon fill="none" stroke="black" points="426,-358 362,-358 362,-322 426,-322 426,-358"/>
<text text-anchor="middle" x="394" y="-337.1" font-family="Courier New" font-size="11.00">P2P_Box</text>
</a>
</g>
<!-- _P2P_Field_Create -->
<g id="node11" class="node"><title>_P2P_Field_Create</title>
<a xlink:href="db_admin_fields.html" xlink:title="P2P_Field_Create" target="_parent">
<polygon fill="none" stroke="black" points="456,-250 332,-250 332,-214 456,-214 456,-250"/>
<text text-anchor="middle" x="394" y="-229.1" font-family="Courier New" font-size="11.00">P2P_Field_Create</text>
</a>
</g>
<!-- _P2P_Field_Create&#45;&gt;_P2P_Field -->
<g id="edge7" class="edge"><title>_P2P_Field_Create-&gt;_P2P_Field</title>
<path fill="none" stroke="black" stroke-dasharray="1,5" d="M331.254,-232C281.693,-232 213.514,-232 167.936,-232"/>
<polygon fill="none" stroke="black" points="167.716,-228.5 157.716,-232 167.716,-235.5 167.716,-228.5"/>
</g>
<!-- _P2P_Field_Delete -->
<g id="node12" class="node"><title>_P2P_Field_Delete</title>
<a xlink:href="db_admin_fields.html" xlink:title="P2P_Field_Delete" target="_parent">
<polygon fill="none" stroke="black" points="456,-196 332,-196 332,-160 456,-160 456,-196"/>
<text text-anchor="middle" x="394" y="-175.1" font-family="Courier New" font-size="11.00">P2P_Field_Delete</text>
</a>
</g>
<!-- _P2P_Field_Delete&#45;&gt;_P2P_Field -->
<g id="edge9" class="edge"><title>_P2P_Field_Delete-&gt;_P2P_Field</title>
<path fill="none" stroke="black" stroke-dasharray="1,5" d="M331.254,-190.321C281.588,-200.074 213.227,-213.497 167.648,-222.447"/>
<polygon fill="none" stroke="black" points="166.854,-219.036 157.716,-224.398 168.203,-225.905 166.854,-219.036"/>
</g>
<!-- _P2P_Field_Order -->
<g id="node13" class="node"><title>_P2P_Field_Order</title>
<a xlink:href="db_admin_fields.html" xlink:title="P2P_Field_Order" target="_parent">
<polygon fill="none" stroke="black" points="453,-142 335,-142 335,-106 453,-106 453,-142"/>
<text text-anchor="middle" x="394" y="-121.1" font-family="Courier New" font-size="11.00">P2P_Field_Order</text>
</a>
</g>
<!-- _P2P_Field_Order&#45;&gt;_P2P_Field -->
<g id="edge11" class="edge"><title>_P2P_Field_Order-&gt;_P2P_Field</title>
<path fill="none" stroke="black" stroke-dasharray="1,5" d="M334.809,-135.554C320.992,-139.443 306.633,-144.502 294,-151 257.21,-169.924 259.281,-192.062 222,-210 205.196,-218.085 185.434,-223.22 167.738,-226.472"/>
<polygon fill="none" stroke="black" points="166.877,-223.068 157.595,-228.177 168.037,-229.971 166.877,-223.068"/>
</g>
<!-- _P2P_Field_Title -->
<g id="node14" class="node"><title>_P2P_Field_Title</title>
<a xlink:href="db_admin_fields.html" xlink:title="P2P_Field_Title" target="_parent">
<polygon fill="none" stroke="black" points="453,-466 335,-466 335,-430 453,-430 453,-466"/>
<text text-anchor="middle" x="394" y="-445.1" font-family="Courier New" font-size="11.00">P2P_Field_Title</text>
</a>
</g>
<!-- _P2P_Field_Title&#45;&gt;_P2P_Field -->
<g id="edge13" class="edge"><title>_P2P_Field_Title-&gt;_P2P_Field</title>
<path fill="none" stroke="black" stroke-dasharray="1,5" d="M334.912,-437.89C320.873,-433.939 306.388,-428.49 294,-421 223.765,-378.538 164.29,-299.817 136.246,-258.652"/>
<polygon fill="none" stroke="black" points="139.069,-256.578 130.588,-250.227 133.257,-260.48 139.069,-256.578"/>
</g>
<!-- _P2P_Field_Generic -->
<g id="node15" class="node"><title>_P2P_Field_Generic</title>
<a xlink:href="db_admin_fields.html" xlink:title="P2P_Field_Generic" target="_parent">
<polygon fill="none" stroke="black" points="459,-304 329,-304 329,-268 459,-268 459,-304"/>
<text text-anchor="middle" x="394" y="-283.1" font-family="Courier New" font-size="11.00">P2P_Field_Generic</text>
</a>
</g>
<!-- _P2P_Field_Generic&#45;&gt;_P2P_Field -->
<g id="edge15" class="edge"><title>_P2P_Field_Generic-&gt;_P2P_Field</title>
<path fill="none" stroke="black" stroke-dasharray="1,5" d="M328.48,-273.134C279.106,-263.439 212.487,-250.357 167.752,-241.573"/>
<polygon fill="none" stroke="black" points="168.202,-238.095 157.715,-239.602 166.853,-244.964 168.202,-238.095"/>
</g>
</g>
<script xlink:href="js/SVGPan.js"/></svg>
